<?xml version="1.0" encoding="UTF-8" standalone="no"?>
<!DOCTYPE svg PUBLIC "-//W3C//DTD SVG 1.1//EN"
 "http://www.w3.org/Graphics/SVG/1.1/DTD/svg11.dtd">
<!-- Generated by graphviz version 15.0.0 (20260523.1842)
 -->
<!-- Title: G Pages: 1 -->
<svg width="394pt" height="78pt"
 viewBox="0.00 0.00 394.00 78.00" xmlns="http://www.w3.org/2000/svg" xmlns:xlink="http://www.w3.org/1999/xlink">
<g id="graph0" class="graph" transform="scale(1 1) rotate(0) translate(4 73.5)">
<title>G</title>
<polygon fill="white" stroke="none" points="-4,4 -4,-73.5 389.5,-73.5 389.5,4 -4,4"/>
<text xml:space="preserve" text-anchor="middle" x="192.75" y="-44.6" font-family="Times,serif" font-size="22.00">Cenário normal</text>
<!-- Florianópolis -->
<g id="node1" class="node">
<title>Florianópolis</title>
<path fill="#dcfce7" stroke="#334155" d="M80.5,-36C80.5,-36 12,-36 12,-36 6,-36 0,-30 0,-24 0,-24 0,-12 0,-12 0,-6 6,0 12,0 12,0 80.5,0 80.5,0 86.5,0 92.5,-6 92.5,-12 92.5,-12 92.5,-24 92.5,-24 92.5,-30 86.5,-36 80.5,-36"/>
<text xml:space="preserve" text-anchor="middle" x="46.25" y="-12.57" font-family="Arial" font-size="14.00">Florianópolis</text>
</g>
<!-- Curitiba -->
<g id="node2" class="node">
<title>Curitiba</title>
<path fill="#f8fafc" stroke="#334155" d="M224,-36C224,-36 185.5,-36 185.5,-36 179.5,-36 173.5,-30 173.5,-24 173.5,-24 173.5,-12 173.5,-12 173.5,-6 179.5,0 185.5,0 185.5,0 224,0 224,0 230,0 236,-6 236,-12 236,-12 236,-24 236,-24 236,-30 230,-36 224,-36"/>
<text xml:space="preserve" text-anchor="middle" x="204.75" y="-12.57" font-family="Arial" font-size="14.00">Curitiba</text>
</g>
<!-- Florianópolis&#45;&#45;Curitiba -->
<g id="edge1" class="edge">
<title>Florianópolis&#45;&#45;Curitiba</title>
<path fill="none" stroke="#16a34a" stroke-width="4" d="M92.94,-18C118.74,-18 150.29,-18 173.12,-18"/>
<text xml:space="preserve" text-anchor="middle" x="133" y="-20.45" font-family="Arial" font-size="14.00">300 km</text>
</g>
<!-- Brasília -->
<g id="node3" class="node">
<title>Brasília</title>
<path fill="#fee2e2" stroke="#334155" d="M373.5,-36C373.5,-36 336.5,-36 336.5,-36 330.5,-36 324.5,-30 324.5,-24 324.5,-24 324.5,-12 324.5,-12 324.5,-6 330.5,0 336.5,0 336.5,0 373.5,0 373.5,0 379.5,0 385.5,-6 385.5,-12 385.5,-12 385.5,-24 385.5,-24 385.5,-30 379.5,-36 373.5,-36"/>
<text xml:space="preserve" text-anchor="middle" x="355" y="-12.57" font-family="Arial" font-size="14.00">Brasília</text>
</g>
<!-- Curitiba&#45;&#45;Brasília -->
<g id="edge2" class="edge">
<title>Curitiba&#45;&#45;Brasília</title>
<path fill="none" stroke="#16a34a" stroke-width="4" d="M236.47,-18C262.17,-18 298.61,-18 324.08,-18"/>
<text xml:space="preserve" text-anchor="middle" x="280.25" y="-20.45" font-family="Arial" font-size="14.00">1366 km</text>
</g>
</g>
</svg>
